<svg xmlns="http://www.w3.org/2000/svg" xmlns:xlink="http://www.w3.org/1999/xlink" width="500" zoomAndPan="magnify" viewBox="0 0 375 374.999991" height="500" preserveAspectRatio="xMidYMid meet" version="1.0"><defs><g/><clipPath id="c2dfdaa69b"><rect x="0" width="236" y="0" height="375"/></clipPath></defs><g transform="matrix(1, 0, 0, 1, 103, 0)"><g clip-path="url(#c2dfdaa69b)"><g fill="#fbbf24" fill-opacity="1"><g transform="translate(7.163467, 316.626917)"><g><path d="M 116.453125 3.78125 C 98.234375 3.78125 82.023438 1.535156 67.828125 -2.953125 C 53.640625 -7.453125 41.8125 -13.351562 32.34375 -20.65625 C 22.882812 -27.96875 15.640625 -36 10.609375 -44.75 L 39.171875 -79.609375 L 43.671875 -79.609375 C 51.578125 -67.867188 61.609375 -58.523438 73.765625 -51.578125 C 85.929688 -44.628906 100.160156 -41.15625 116.453125 -41.15625 C 130.347656 -41.15625 140.828125 -44.085938 147.890625 -49.953125 C 154.960938 -55.828125 158.5 -63.914062 158.5 -74.21875 C 158.5 -80.445312 157.359375 -85.65625 155.078125 -89.84375 C 152.804688 -94.039062 149.035156 -97.632812 143.765625 -100.625 C 138.492188 -103.625 131.363281 -106.203125 122.375 -108.359375 L 88.59375 -116.09375 C 64.988281 -121.476562 47.40625 -130.429688 35.84375 -142.953125 C 24.289062 -155.472656 18.515625 -171.738281 18.515625 -191.75 C 18.515625 -206.601562 22.226562 -219.660156 29.65625 -230.921875 C 37.082031 -242.179688 47.890625 -250.925781 62.078125 -257.15625 C 76.273438 -263.382812 93.257812 -266.5 113.03125 -266.5 C 133.28125 -266.5 150.625 -263.832031 165.0625 -258.5 C 179.5 -253.164062 191.6875 -244.988281 201.625 -233.96875 L 175.921875 -198.75 L 171.4375 -198.75 C 164.007812 -206.539062 155.503906 -212.378906 145.921875 -216.265625 C 136.335938 -220.160156 125.375 -222.109375 113.03125 -222.109375 C 98.769531 -222.109375 87.925781 -219.59375 80.5 -214.5625 C 73.070312 -209.53125 69.359375 -202.582031 69.359375 -193.71875 C 69.359375 -185.445312 71.960938 -178.851562 77.171875 -173.9375 C 82.390625 -169.03125 91.410156 -165.203125 104.234375 -162.453125 L 138.734375 -155.265625 C 164.242188 -149.867188 182.75 -140.734375 194.25 -127.859375 C 205.757812 -114.984375 211.515625 -98.179688 211.515625 -77.453125 C 211.515625 -61.035156 207.976562 -46.75 200.90625 -34.59375 C 193.84375 -22.4375 183.179688 -13 168.921875 -6.28125 C 154.660156 0.425781 137.171875 3.78125 116.453125 3.78125 Z M 116.453125 3.78125 "/></g></g></g></g></g></svg>